<svg width="277" height="223" viewBox="0 0 277 223" fill="none" xmlns="http://www.w3.org/2000/svg">
<path d="M176.057 61.7267L184.918 61.8816L208.993 37.8072L210.155 27.6057C191.022 10.5878 165.848 0.231445 138.295 0.231445C88.4111 0.231445 46.304 34.1743 33.833 80.1544C36.4666 78.3186 42.0825 79.6896 42.0825 79.6896L90.2005 71.7732C90.2005 71.7732 92.6792 67.6679 93.9185 67.9235C104.247 56.6243 118.498 49.6917 133.763 48.5401C149.028 47.3886 164.158 52.1048 176.065 61.7267H176.057Z" fill="#EA4335"/>
<path d="M242.904 80.2395C237.373 59.8884 226.023 41.5935 210.247 27.5979L176.149 61.6957C183.147 67.3198 188.794 74.4418 192.675 82.5374C196.556 90.6329 198.572 99.4959 198.574 108.474V114.492C215.166 114.492 228.628 127.993 228.628 144.547C228.628 161.1 215.127 174.601 198.574 174.601H138.45L132.431 180.643V216.724L138.45 222.711H198.574C219.281 222.656 239.122 214.402 253.759 199.755C268.396 185.108 276.636 165.261 276.677 144.554C276.646 117.939 263.23 94.3604 242.827 80.2395H242.904Z" fill="#4285F4"/>
<path d="M78.1784 222.765H138.287V174.647H78.1784C73.9098 174.649 69.6909 173.733 65.808 171.96L57.1325 174.616L33.0581 198.691L30.9512 206.824C44.4962 217.224 61.1091 222.836 78.1861 222.781L78.1784 222.765Z" fill="#34A853"/>
<path d="M78.1781 66.3976C57.4515 66.4304 37.5831 74.6785 22.9271 89.3345C8.27117 103.99 0.0230103 123.859 -0.00976562 144.585C-0.00988476 156.655 2.78792 168.559 8.16389 179.365C13.5399 190.171 21.3477 199.583 30.9741 206.863L65.831 172.006C60.5511 169.631 56.0697 165.78 52.9256 160.919C49.7816 156.057 48.1088 150.391 48.1082 144.601C48.1082 128.009 61.6094 114.547 78.1626 114.547C83.9502 114.557 89.6125 116.233 94.4724 119.376C99.3324 122.519 103.184 126.995 105.568 132.269L140.425 97.4125C126.126 78.5897 103.554 66.4286 78.1471 66.4286L78.1781 66.3976Z" fill="#FBBC05"/>
</svg>
